<svg width="56" height="56" viewBox="0 0 56 56" fill="none" xmlns="http://www.w3.org/2000/svg">
<path fill-rule="evenodd" clip-rule="evenodd" d="M30.014 30.014V46.172L33.771 42.414C34.1461 42.0389 34.655 41.8281 35.1855 41.8281C35.716 41.8281 36.2248 42.0389 36.6 42.414C36.9751 42.7892 37.1859 43.298 37.1859 43.8285C37.1859 44.359 36.9751 44.8679 36.6 45.243L29.529 52.313C29.512 52.33 29.4946 52.3466 29.477 52.363C29.2901 52.5641 29.0637 52.7245 28.812 52.8341C28.5602 52.9437 28.2886 53.0002 28.014 53C27.5403 53.0009 27.0819 52.8329 26.721 52.526C26.632 52.4622 26.5484 52.3913 26.471 52.314L19.401 45.243C19.0259 44.868 18.815 44.3593 18.8149 43.8289C18.8149 43.2984 19.0255 42.7897 19.4005 42.4145C19.7755 42.0394 20.2842 41.8285 20.8146 41.8285C21.3451 41.8284 21.8539 42.039 22.229 42.414L26.014 46.199V30.014H9.828L13.586 33.771C13.7718 33.9568 13.9191 34.1773 14.0196 34.42C14.1202 34.6627 14.1719 34.9228 14.1719 35.1855C14.1719 35.4482 14.1202 35.7083 14.0196 35.951C13.9191 36.1937 13.7718 36.4142 13.586 36.6C13.4002 36.7858 13.1797 36.9331 12.937 37.0336C12.6943 37.1342 12.4342 37.1859 12.1715 37.1859C11.9088 37.1859 11.6487 37.1342 11.406 37.0336C11.1633 36.9331 10.9428 36.7858 10.757 36.6L3.687 29.529C3.67003 29.512 3.65336 29.4946 3.637 29.477C3.43586 29.2901 3.27547 29.0637 3.16586 28.812C3.05625 28.5602 2.99979 28.2886 3 28.014C3 27.521 3.178 27.069 3.474 26.721C3.537 26.633 3.608 26.55 3.686 26.471L10.757 19.401C11.132 19.0259 11.6407 18.815 12.1711 18.815C12.7016 18.8149 13.2104 19.0255 13.5855 19.4005C13.9606 19.7755 14.1715 20.2842 14.1716 20.8146C14.1716 21.3451 13.961 21.8539 13.586 22.229L9.8 26.014H26.013V9.801L22.228 13.586C21.8529 13.9612 21.344 14.1719 20.8135 14.1719C20.283 14.1719 19.7741 13.9612 19.399 13.586C19.0239 13.2109 18.8131 12.702 18.8131 12.1715C18.8131 11.641 19.0239 11.1322 19.399 10.757L26.47 3.687C26.549 3.607 26.632 3.537 26.72 3.474C27.0809 3.16715 27.5393 2.99908 28.013 3C28.591 3 29.111 3.245 29.476 3.637C29.4941 3.65289 29.5114 3.66958 29.528 3.687L36.598 10.757C36.7838 10.9427 36.9311 11.1632 37.0317 11.4058C37.1322 11.6484 37.184 11.9085 37.1841 12.1712C37.1841 12.4338 37.1324 12.6939 37.0319 12.9366C36.9315 13.1792 36.7842 13.3997 36.5985 13.5855C36.4128 13.7713 36.1924 13.9186 35.9497 14.0192C35.7071 14.1197 35.447 14.1715 35.1844 14.1716C34.9217 14.1716 34.6616 14.1199 34.4189 14.0194C34.1763 13.919 33.9558 13.7717 33.77 13.586L30.013 9.828V26.014H46.198L42.413 22.229C42.2272 22.0432 42.0799 21.8227 41.9794 21.58C41.8788 21.3373 41.8271 21.0772 41.8271 20.8145C41.8271 20.5518 41.8788 20.2917 41.9794 20.049C42.0799 19.8063 42.2272 19.5858 42.413 19.4C42.7881 19.0249 43.297 18.8141 43.8275 18.8141C44.0902 18.8141 44.3503 18.8658 44.593 18.9664C44.8357 19.0669 45.0562 19.2142 45.242 19.4L52.312 26.471C52.392 26.55 52.462 26.633 52.525 26.721C52.821 27.069 52.999 27.521 52.999 28.014C52.999 28.592 52.754 29.112 52.362 29.477C52.3456 29.4946 52.329 29.512 52.312 29.529L45.242 36.599C44.867 36.9742 44.3583 37.185 43.8279 37.1851C43.2974 37.1851 42.7887 36.9745 42.4135 36.5995C42.0384 36.2245 41.8275 35.7158 41.8274 35.1854C41.8274 34.6549 42.038 34.1462 42.413 33.771L46.171 30.014H30.014Z" fill="white"/>
</svg>
