<svg width="48" height="47" viewBox="0 0 48 47" fill="none" xmlns="http://www.w3.org/2000/svg">
<path d="M32.932 14.6875C31.286 8.29748 27.904 3.91669 24 3.91669C18.478 3.91669 14 12.6841 14 23.5C14 34.3159 18.478 43.0834 24 43.0834C24.684 43.0834 25.354 42.9482 26 42.6917M30.388 26.8429L38.016 30.4854L34.296 37.9545" stroke="white" stroke-width="5" stroke-linecap="round" stroke-linejoin="round"/>
<path d="M38 30.4913C34.392 32.2244 29.452 33.2917 24 33.2917C12.954 33.2917 4 28.907 4 23.5C4 18.0931 12.954 13.7084 24 13.7084C33.676 13.7084 41.746 17.0728 43.6 21.5417" stroke="white" stroke-width="5" stroke-linecap="round" stroke-linejoin="round"/>
</svg>
